# This file uses centimeters as units for non-parametric coordinates.

mtllib box10.mtl
g default
v -5.000000 -5.000000 5.000000
v 5.000000 -5.000000 5.000000
v -5.000000 5.000000 5.000000
v 5.000000 5.000000 5.000000
v -5.000000 5.000000 -5.000000
v 5.000000 5.000000 -5.000000
v -5.000000 -5.000000 -5.000000
v 5.000000 -5.000000 -5.000000
vt 0.999345 0.749771
vt 0.251508 0.501706
vt 0.248721 0.748919
vt 0.497639 0.748919
vt 0.747639 0.998918
vt 0.249574 0.750853
vt 0.499574 1.000853
vt 0.001508 0.750000
vt 0.251508 1.000000
vt 0.001508 1.000000
vt 0.498721 0.498919
vt 0.498721 0.748919
vt 0.749345 0.749771
vt 0.749345 0.999771
vt 0.001508 0.501706
vt 0.249574 1.000853
vt 0.251508 0.750000
vt 0.248721 0.498919
vt 0.497639 0.998918
vt 0.499574 0.750853
vt 0.001508 0.751706
vt 0.999345 0.999771
vt 0.251508 0.751706
vt 0.747639 0.748919
vn 0.000000 0.000000 1.000000
vn 0.000000 0.000000 1.000000
vn 0.000000 0.000000 1.000000
vn 0.000000 0.000000 1.000000
vn 0.000000 1.000000 0.000000
vn 0.000000 1.000000 0.000000
vn 0.000000 1.000000 0.000000
vn 0.000000 1.000000 0.000000
vn 0.000000 0.000000 -1.000000
vn 0.000000 0.000000 -1.000000
vn 0.000000 0.000000 -1.000000
vn 0.000000 0.000000 -1.000000
vn 0.000000 -1.000000 0.000000
vn 0.000000 -1.000000 0.000000
vn 0.000000 -1.000000 0.000000
vn 0.000000 -1.000000 0.000000
vn 1.000000 0.000000 0.000000
vn 1.000000 0.000000 0.000000
vn 1.000000 0.000000 0.000000
vn 1.000000 0.000000 0.000000
vn -1.000000 0.000000 0.000000
vn -1.000000 0.000000 0.000000
vn -1.000000 0.000000 0.000000
vn -1.000000 0.000000 0.000000
s off
g box10:pCube1
usemtl box10:initialShadingGroup
f 1/15/1 2/2/2 4/23/3 3/21/4
f 3/4/5 4/24/6 6/5/7 5/19/8
f 5/6/9 6/20/10 8/7/11 7/16/12
f 7/8/13 8/17/14 2/9/15 1/10/16
f 2/18/17 8/11/18 6/12/19 4/3/20
f 7/13/21 1/1/22 3/22/23 5/14/24
